<?xml version="1.0" standalone="no"?>
<!DOCTYPE svg PUBLIC "-//W3C//DTD SVG 20010904//EN"
 "http://www.w3.org/TR/2001/REC-SVG-20010904/DTD/svg10.dtd">
<svg version="1.0" xmlns="http://www.w3.org/2000/svg"
 width="626.000000pt" height="626.000000pt" viewBox="0 0 626.000000 626.000000"
 preserveAspectRatio="xMidYMid meet">
<metadata>
Created by potrace 1.11, written by Peter Selinger 2001-2013
</metadata>
<g transform="translate(0.000000,626.000000) scale(0.100000,-0.100000)"
fill="#000000" stroke="none">
<path d="M3015 5814 c-483 -32 -867 -148 -1263 -381 -306 -180 -634 -489 -832
-783 -89 -133 -220 -361 -220 -384 0 -3 1093 -6 2430 -6 1337 0 2430 3 2430 6
0 3 -16 38 -37 78 -154 301 -385 596 -638 814 -326 281 -679 465 -1100 575
-215 57 -573 94 -770 81z"/>
<path d="M3 3826 c3 -7 58 -179 122 -382 64 -203 128 -405 142 -449 14 -44 40
-129 59 -190 18 -60 51 -164 72 -230 l40 -120 183 0 184 0 16 65 c9 36 35 137
58 225 81 307 90 341 120 459 28 105 41 145 41 122 0 -6 57 -221 165 -616 29
-107 56 -210 60 -227 l7 -33 183 0 183 0 6 28 c4 15 31 101 61 192 29 91 89
278 133 415 137 425 235 729 240 743 3 9 -37 12 -182 12 l-185 0 -11 -42 c-6
-24 -17 -64 -26 -91 -8 -26 -40 -134 -70 -240 -31 -105 -66 -228 -79 -272 -13
-44 -33 -114 -45 -155 -12 -41 -25 -78 -29 -82 -4 -5 -24 61 -45 145 -41 160
-131 514 -168 655 l-21 82 -181 -2 -180 -3 -22 -85 c-12 -47 -33 -128 -47
-180 -14 -52 -55 -210 -92 -350 -37 -140 -70 -258 -74 -262 -4 -4 -56 164
-116 375 -60 210 -117 410 -127 445 l-19 62 -181 0 c-149 0 -179 -2 -175 -14z"/>
<path d="M2090 3833 c0 -4 9 -32 20 -62 24 -71 277 -870 361 -1141 16 -52 35
-113 43 -135 l14 -40 184 0 183 0 22 85 c11 47 35 139 53 205 17 66 42 161 55
210 27 104 81 306 93 349 7 27 10 24 29 -45 12 -41 38 -137 59 -214 20 -77 60
-228 89 -335 30 -107 56 -210 60 -227 l7 -33 181 0 182 0 58 183 c153 477 230
718 252 782 13 39 47 144 76 235 28 91 54 171 56 178 4 9 -36 12 -179 12
l-184 0 -49 -167 c-27 -93 -63 -217 -81 -278 -18 -60 -53 -182 -79 -270 -25
-88 -50 -163 -54 -167 -4 -5 -38 115 -75 265 -38 149 -79 310 -91 357 -13 47
-33 124 -45 173 l-23 87 -178 0 -178 0 -21 -69 c-11 -37 -20 -73 -20 -78 0 -6
-13 -57 -29 -114 -32 -118 -61 -223 -121 -454 -23 -88 -45 -164 -50 -168 -4
-5 -14 18 -23 50 -27 104 -64 236 -102 363 -20 69 -44 150 -52 180 -8 30 -20
75 -28 100 -8 25 -23 78 -35 118 l-21 72 -179 0 c-99 0 -180 -3 -180 -7z"/>
<path d="M4182 3828 c3 -7 51 -159 107 -338 56 -179 138 -437 182 -575 44
-137 95 -297 114 -355 l33 -105 183 0 183 0 22 85 c12 47 36 139 54 205 17 66
44 170 60 230 33 126 76 286 88 330 7 26 9 27 14 10 3 -11 36 -132 73 -270 37
-137 75 -279 85 -315 9 -36 30 -113 45 -172 l27 -108 182 0 181 0 29 93 c16
50 41 130 56 177 16 47 66 204 113 350 47 146 119 369 160 495 41 127 77 240
81 253 l7 22 -185 0 -185 0 -11 -42 c-14 -52 -113 -395 -144 -498 -13 -41 -40
-137 -62 -212 -21 -76 -42 -134 -46 -130 -5 5 -35 114 -67 243 -33 129 -82
323 -110 432 -28 109 -51 200 -51 203 0 2 -82 3 -182 2 l-182 -3 -114 -435
c-62 -239 -117 -438 -121 -443 -4 -4 -19 34 -33 85 -14 51 -43 152 -63 223
-21 72 -66 229 -100 350 l-63 220 -182 3 c-144 2 -181 0 -178 -10z"/>
<path d="M700 1994 c0 -7 78 -156 118 -223 214 -368 575 -733 933 -943 185
-109 307 -165 514 -237 481 -168 1032 -191 1520 -65 753 196 1363 680 1727
1371 26 51 48 94 48 97 0 4 -1093 6 -2430 6 -1337 0 -2430 -3 -2430 -6z"/>
</g>
</svg>
